<svg width="160" height="32" viewBox="0 0 160 32" fill="none" xmlns="http://www.w3.org/2000/svg">
<rect x="0.5" y="0.5" width="159" height="31" rx="3.5" stroke="#E5E5E5"/>
<path d="M19.136 12.726V15.708H23.868V17.248H19.136V21H17.316V11.2H24.47V12.726H19.136ZM33.135 17.304C33.135 17.4253 33.1257 17.598 33.107 17.822H27.241C27.3437 18.3727 27.6097 18.8113 28.039 19.138C28.4777 19.4553 29.019 19.614 29.663 19.614C30.4843 19.614 31.161 19.3433 31.693 18.802L32.631 19.88C32.295 20.2813 31.8703 20.5847 31.357 20.79C30.8437 20.9953 30.265 21.098 29.621 21.098C28.7997 21.098 28.0763 20.9347 27.451 20.608C26.8257 20.2813 26.3403 19.8287 25.995 19.25C25.659 18.662 25.491 17.9993 25.491 17.262C25.491 16.534 25.6543 15.8807 25.981 15.302C26.317 14.714 26.779 14.2567 27.367 13.93C27.955 13.6033 28.6177 13.44 29.355 13.44C30.083 13.44 30.7317 13.6033 31.301 13.93C31.8797 14.2473 32.3277 14.7 32.645 15.288C32.9717 15.8667 33.135 16.5387 33.135 17.304ZM29.355 14.84C28.795 14.84 28.319 15.008 27.927 15.344C27.5443 15.6707 27.311 16.1093 27.227 16.66H31.469C31.3943 16.1187 31.1657 15.68 30.783 15.344C30.4003 15.008 29.9243 14.84 29.355 14.84ZM39.21 13.44C39.938 13.44 40.5866 13.5987 41.156 13.916C41.7346 14.2333 42.1873 14.6813 42.514 15.26C42.8406 15.8387 43.004 16.506 43.004 17.262C43.004 18.018 42.8406 18.69 42.514 19.278C42.1873 19.8567 41.7346 20.3047 41.156 20.622C40.5866 20.9393 39.938 21.098 39.21 21.098C38.6966 21.098 38.2253 21.0093 37.796 20.832C37.376 20.6547 37.0213 20.3887 36.732 20.034V21H35.066V10.612H36.816V14.434C37.1146 14.1073 37.4646 13.86 37.866 13.692C38.2766 13.524 38.7246 13.44 39.21 13.44ZM39.014 19.6C39.658 19.6 40.1853 19.3853 40.596 18.956C41.016 18.5267 41.226 17.962 41.226 17.262C41.226 16.562 41.016 15.9973 40.596 15.568C40.1853 15.1387 39.658 14.924 39.014 14.924C38.594 14.924 38.216 15.022 37.88 15.218C37.544 15.4047 37.278 15.6753 37.082 16.03C36.886 16.3847 36.788 16.7953 36.788 17.262C36.788 17.7287 36.886 18.1393 37.082 18.494C37.278 18.8487 37.544 19.124 37.88 19.32C38.216 19.5067 38.594 19.6 39.014 19.6ZM48.6548 16.38H52.5048V17.836H48.6548V16.38ZM67.9586 21L67.9446 14.504L64.7246 19.88H63.9126L60.6926 14.588V21H58.9566V11.2H60.4546L64.3466 17.696L68.1686 11.2H69.6666L69.6806 21H67.9586ZM75.2657 13.44C76.3671 13.44 77.2071 13.706 77.7857 14.238C78.3737 14.7607 78.6677 15.554 78.6677 16.618V21H77.0157V20.09C76.8011 20.4167 76.4931 20.6687 76.0917 20.846C75.6997 21.014 75.2237 21.098 74.6637 21.098C74.1037 21.098 73.6137 21.0047 73.1937 20.818C72.7737 20.622 72.4471 20.356 72.2137 20.02C71.9897 19.6747 71.8777 19.2873 71.8777 18.858C71.8777 18.186 72.1251 17.6493 72.6197 17.248C73.1237 16.8373 73.9124 16.632 74.9857 16.632H76.9177V16.52C76.9177 15.9973 76.7591 15.596 76.4417 15.316C76.1337 15.036 75.6717 14.896 75.0557 14.896C74.6357 14.896 74.2204 14.9613 73.8097 15.092C73.4084 15.2227 73.0677 15.4047 72.7877 15.638L72.1017 14.364C72.4937 14.0653 72.9651 13.8367 73.5157 13.678C74.0664 13.5193 74.6497 13.44 75.2657 13.44ZM75.0277 19.824C75.4664 19.824 75.8537 19.726 76.1897 19.53C76.5351 19.3247 76.7777 19.0353 76.9177 18.662V17.794H75.1117C74.1037 17.794 73.5997 18.1253 73.5997 18.788C73.5997 19.1053 73.7257 19.3573 73.9777 19.544C74.2297 19.7307 74.5797 19.824 75.0277 19.824ZM82.8296 14.616C83.3336 13.832 84.2203 13.44 85.4896 13.44V15.106C85.3403 15.078 85.205 15.064 85.0836 15.064C84.4023 15.064 83.8703 15.2647 83.4876 15.666C83.105 16.058 82.9136 16.6273 82.9136 17.374V21H81.1636V13.524H82.8296V14.616ZM97.9777 19.46V21H90.7537V19.782L94.6457 16.086C95.0843 15.666 95.3783 15.302 95.5277 14.994C95.6863 14.6767 95.7657 14.364 95.7657 14.056C95.7657 13.5987 95.6117 13.2487 95.3037 13.006C94.9957 12.7633 94.543 12.642 93.9457 12.642C92.947 12.642 92.1817 12.9827 91.6497 13.664L90.3757 12.684C90.7583 12.1707 91.2717 11.774 91.9157 11.494C92.569 11.2047 93.297 11.06 94.0997 11.06C95.1637 11.06 96.013 11.312 96.6477 11.816C97.2823 12.32 97.5997 13.006 97.5997 13.874C97.5997 14.406 97.4877 14.9053 97.2637 15.372C97.0397 15.8387 96.6103 16.3707 95.9757 16.968L93.3577 19.46H97.9777ZM103.325 21.14C102.541 21.14 101.841 20.944 101.225 20.552C100.609 20.1507 100.124 19.572 99.7691 18.816C99.4144 18.0507 99.2371 17.1453 99.2371 16.1C99.2371 15.0547 99.4144 14.154 99.7691 13.398C100.124 12.6327 100.609 12.054 101.225 11.662C101.841 11.2607 102.541 11.06 103.325 11.06C104.109 11.06 104.809 11.2607 105.425 11.662C106.05 12.054 106.54 12.6327 106.895 13.398C107.25 14.154 107.427 15.0547 107.427 16.1C107.427 17.1453 107.25 18.0507 106.895 18.816C106.54 19.572 106.05 20.1507 105.425 20.552C104.809 20.944 104.109 21.14 103.325 21.14ZM103.325 19.558C104.025 19.558 104.576 19.2687 104.977 18.69C105.388 18.1113 105.593 17.248 105.593 16.1C105.593 14.952 105.388 14.0887 104.977 13.51C104.576 12.9313 104.025 12.642 103.325 12.642C102.634 12.642 102.084 12.9313 101.673 13.51C101.272 14.0887 101.071 14.952 101.071 16.1C101.071 17.248 101.272 18.1113 101.673 18.69C102.084 19.2687 102.634 19.558 103.325 19.558ZM115.937 19.46V21H108.713V19.782L112.605 16.086C113.043 15.666 113.337 15.302 113.487 14.994C113.645 14.6767 113.725 14.364 113.725 14.056C113.725 13.5987 113.571 13.2487 113.263 13.006C112.955 12.7633 112.502 12.642 111.905 12.642C110.906 12.642 110.141 12.9827 109.609 13.664L108.335 12.684C108.717 12.1707 109.231 11.774 109.875 11.494C110.528 11.2047 111.256 11.06 112.059 11.06C113.123 11.06 113.972 11.312 114.607 11.816C115.241 12.32 115.559 13.006 115.559 13.874C115.559 14.406 115.447 14.9053 115.223 15.372C114.999 15.8387 114.569 16.3707 113.935 16.968L111.317 19.46H115.937ZM120.625 11.2V21H118.805V12.726H116.733V11.2H120.625Z" fill="#333333"/>
<path fill-rule="evenodd" clip-rule="evenodd" d="M138 12.6667C138 11.5622 138.895 10.6667 140 10.6667H148C149.105 10.6667 150 11.5622 150 12.6667V20.6667C150 21.7713 149.105 22.6667 148 22.6667H140C138.895 22.6667 138 21.7713 138 20.6667V12.6667Z" stroke="#333333" stroke-width="2" stroke-linecap="round" stroke-linejoin="round"/>
<path d="M146.667 9.33325V11.9999" stroke="#333333" stroke-width="2" stroke-linecap="round" stroke-linejoin="round"/>
<path d="M141.333 9.33325V11.9999" stroke="#333333" stroke-width="2" stroke-linecap="round" stroke-linejoin="round"/>
<path d="M138 14.6667H150" stroke="#333333" stroke-width="2" stroke-linecap="round" stroke-linejoin="round"/>
</svg>
